<?xml version="1.0" encoding="UTF-8" standalone="no"?>
<svg
   xmlns:osb="http://www.openswatchbook.org/uri/2009/osb"
   xmlns:dc="http://purl.org/dc/elements/1.1/"
   xmlns:cc="http://creativecommons.org/ns#"
   xmlns:rdf="http://www.w3.org/1999/02/22-rdf-syntax-ns#"
   xmlns:svg="http://www.w3.org/2000/svg"
   xmlns="http://www.w3.org/2000/svg"
   xmlns:sodipodi="http://sodipodi.sourceforge.net/DTD/sodipodi-0.dtd"
   xmlns:inkscape="http://www.inkscape.org/namespaces/inkscape"
   width="840.886"
   height="840.886"
   viewBox="0 0 840.886 840.886"
   version="1.1"
   id="svg16"
   sodipodi:docname="dots.svg"
   inkscape:version="1.0.1 (3bc2e813f5, 2020-09-07)">
  <metadata
     id="metadata22">
    <rdf:RDF>
      <cc:Work
         rdf:about="">
        <dc:format>image/svg+xml</dc:format>
        <dc:type
           rdf:resource="http://purl.org/dc/dcmitype/StillImage" />
        <dc:title></dc:title>
      </cc:Work>
    </rdf:RDF>
  </metadata>
  <defs
     id="defs20">
    <linearGradient
       id="linearGradient843"
       osb:paint="solid">
      <stop
         style="stop-color:#000000;stop-opacity:1;"
         offset="0"
         id="stop841" />
    </linearGradient>
  </defs>
  <sodipodi:namedview
     pagecolor="#ffffff"
     bordercolor="#666666"
     borderopacity="1"
     objecttolerance="10"
     gridtolerance="10"
     guidetolerance="10"
     inkscape:pageopacity="0"
     inkscape:pageshadow="2"
     inkscape:window-width="2558"
     inkscape:window-height="1368"
     id="namedview18"
     showgrid="false"
     inkscape:zoom="0.79381606"
     inkscape:cx="454.09043"
     inkscape:cy="524.34009"
     inkscape:window-x="1273"
     inkscape:window-y="0"
     inkscape:window-maximized="0"
     inkscape:current-layer="g14"
     inkscape:document-rotation="0" />
  <g
     transform="translate(-1499.364 -119.057)"
     id="g14">
    <path
       id="path847"
       style="color:#000000;font-style:normal;font-variant:normal;font-weight:normal;font-stretch:normal;font-size:medium;line-height:normal;font-family:sans-serif;font-variant-ligatures:normal;font-variant-position:normal;font-variant-caps:normal;font-variant-numeric:normal;font-variant-alternates:normal;font-variant-east-asian:normal;font-feature-settings:normal;font-variation-settings:normal;text-indent:0;text-align:start;text-decoration:none;text-decoration-line:none;text-decoration-style:solid;text-decoration-color:#000000;letter-spacing:normal;word-spacing:normal;text-transform:none;writing-mode:lr-tb;direction:ltr;text-orientation:mixed;dominant-baseline:auto;baseline-shift:baseline;text-anchor:start;white-space:normal;shape-padding:0;shape-margin:0;inline-size:0;clip-rule:nonzero;display:inline;overflow:visible;visibility:visible;isolation:auto;mix-blend-mode:normal;color-interpolation:sRGB;color-interpolation-filters:linearRGB;solid-color:#000000;solid-opacity:1;vector-effect:none;fill:#000000;fill-opacity:1;fill-rule:nonzero;stroke:none;stroke-width:22;stroke-linecap:butt;stroke-linejoin:miter;stroke-miterlimit:4;stroke-dasharray:none;stroke-dashoffset:0;stroke-opacity:1;color-rendering:auto;image-rendering:auto;shape-rendering:auto;text-rendering:auto;enable-background:accumulate;stop-color:#000000"
       d="M 420.44336 0 L 412.66602 7.7792969 L 0 420.44336 L 420.44336 840.88672 L 840.88672 420.44336 L 420.44336 0 z M 420.44336 31.113281 L 809.77344 420.44336 L 420.44336 809.77344 L 31.113281 420.44336 L 420.44336 31.113281 z M 420.44141 51.574219 L 412.66406 59.351562 L 51.574219 420.44141 L 420.44336 789.31055 L 789.31055 420.44336 L 420.44141 51.574219 z M 420.44141 82.6875 L 758.19922 420.44336 L 420.44336 758.19922 L 82.6875 420.44141 L 420.44141 82.6875 z M 280.44336 364.74414 C 249.78766 364.74315 224.74314 389.78759 224.74414 420.44336 C 224.74314 451.09913 249.78766 476.14357 280.44336 476.14258 C 311.09916 476.14357 336.14348 451.09913 336.14258 420.44336 C 336.14348 389.78759 311.09916 364.74315 280.44336 364.74414 z M 420.44336 364.74414 C 389.78766 364.74315 364.74314 389.78759 364.74414 420.44336 C 364.74314 451.09913 389.78766 476.14357 420.44336 476.14258 C 451.09916 476.14357 476.14348 451.09913 476.14258 420.44336 C 476.14348 389.78759 451.09916 364.74315 420.44336 364.74414 z M 560.44336 364.74414 C 529.78766 364.74315 504.74314 389.78759 504.74414 420.44336 C 504.74314 451.09913 529.78766 476.14357 560.44336 476.14258 C 591.09916 476.14357 616.14348 451.09913 616.14258 420.44336 C 616.14348 389.78759 591.09916 364.74315 560.44336 364.74414 z M 280.44336 382.74414 C 301.37086 382.74347 318.14318 399.51593 318.14258 420.44336 C 318.14318 441.37079 301.37086 458.14325 280.44336 458.14258 C 259.51596 458.14325 242.74344 441.37079 242.74414 420.44336 C 242.74344 399.51593 259.51596 382.74347 280.44336 382.74414 z M 420.44336 382.74414 C 441.37086 382.74347 458.14318 399.51593 458.14258 420.44336 C 458.14318 441.37079 441.37086 458.14325 420.44336 458.14258 C 399.51596 458.14325 382.74344 441.37079 382.74414 420.44336 C 382.74344 399.51593 399.51596 382.74347 420.44336 382.74414 z M 560.44336 382.74414 C 581.37086 382.74347 598.14318 399.51593 598.14258 420.44336 C 598.14318 441.37079 581.37086 458.14325 560.44336 458.14258 C 539.51596 458.14325 522.74344 441.37079 522.74414 420.44336 C 522.74344 399.51593 539.51596 382.74347 560.44336 382.74414 z "
       transform="translate(1499.364,119.057)" />
  </g>
</svg>
