<?xml version="1.0" encoding="UTF-8" standalone="no"?>
<svg
   xmlns:osb="http://www.openswatchbook.org/uri/2009/osb"
   xmlns:dc="http://purl.org/dc/elements/1.1/"
   xmlns:cc="http://creativecommons.org/ns#"
   xmlns:rdf="http://www.w3.org/1999/02/22-rdf-syntax-ns#"
   xmlns:svg="http://www.w3.org/2000/svg"
   xmlns="http://www.w3.org/2000/svg"
   xmlns:sodipodi="http://sodipodi.sourceforge.net/DTD/sodipodi-0.dtd"
   xmlns:inkscape="http://www.inkscape.org/namespaces/inkscape"
   width="840.886"
   height="840.886"
   viewBox="0 0 840.886 840.886"
   version="1.1"
   id="svg16"
   sodipodi:docname="github.svg"
   inkscape:version="1.0.1 (3bc2e813f5, 2020-09-07)">
  <metadata
     id="metadata22">
    <rdf:RDF>
      <cc:Work
         rdf:about="">
        <dc:format>image/svg+xml</dc:format>
        <dc:type
           rdf:resource="http://purl.org/dc/dcmitype/StillImage" />
        <dc:title></dc:title>
      </cc:Work>
    </rdf:RDF>
  </metadata>
  <defs
     id="defs20">
    <linearGradient
       id="linearGradient843"
       osb:paint="solid">
      <stop
         style="stop-color:#000000;stop-opacity:1;"
         offset="0"
         id="stop841" />
    </linearGradient>
  </defs>
  <sodipodi:namedview
     pagecolor="#ffffff"
     bordercolor="#666666"
     borderopacity="1"
     objecttolerance="10"
     gridtolerance="10"
     guidetolerance="10"
     inkscape:pageopacity="0"
     inkscape:pageshadow="2"
     inkscape:window-width="2558"
     inkscape:window-height="1368"
     id="namedview18"
     showgrid="false"
     inkscape:zoom="1.1226254"
     inkscape:cx="420.69666"
     inkscape:cy="374.036"
     inkscape:window-x="1273"
     inkscape:window-y="0"
     inkscape:window-maximized="0"
     inkscape:current-layer="g14"
     inkscape:document-rotation="0" />
  <g
     transform="translate(-1499.364 -119.057)"
     id="g14">
    <path
       id="path840"
       style="color:#000000;font-style:normal;font-variant:normal;font-weight:normal;font-stretch:normal;font-size:medium;line-height:normal;font-family:sans-serif;font-variant-ligatures:normal;font-variant-position:normal;font-variant-caps:normal;font-variant-numeric:normal;font-variant-alternates:normal;font-variant-east-asian:normal;font-feature-settings:normal;font-variation-settings:normal;text-indent:0;text-align:start;text-decoration:none;text-decoration-line:none;text-decoration-style:solid;text-decoration-color:#000000;letter-spacing:normal;word-spacing:normal;text-transform:none;writing-mode:lr-tb;direction:ltr;text-orientation:mixed;dominant-baseline:auto;baseline-shift:baseline;text-anchor:start;white-space:normal;shape-padding:0;shape-margin:0;inline-size:0;clip-rule:nonzero;display:inline;overflow:visible;visibility:visible;isolation:auto;mix-blend-mode:normal;color-interpolation:sRGB;color-interpolation-filters:linearRGB;solid-color:#000000;solid-opacity:1;vector-effect:none;fill:#000000;fill-opacity:1;fill-rule:nonzero;stroke:none;stroke-width:22;stroke-linecap:butt;stroke-linejoin:miter;stroke-miterlimit:4;stroke-dasharray:none;stroke-dashoffset:0;stroke-opacity:1;color-rendering:auto;image-rendering:auto;shape-rendering:auto;text-rendering:auto;enable-background:accumulate;stop-color:#000000"
       d="M 420.44336 0 L 412.66602 7.7792969 L 0 420.44336 L 420.44336 840.88672 L 840.88672 420.44336 L 420.44336 0 z M 420.44336 31.113281 L 809.77344 420.44336 L 420.44336 809.77344 L 31.113281 420.44336 L 420.44336 31.113281 z M 420.44141 51.574219 L 412.66406 59.351562 L 51.574219 420.44141 L 420.44336 789.31055 L 789.31055 420.44336 L 420.44141 51.574219 z M 420.44141 82.6875 L 758.19922 420.44336 L 420.44336 758.19922 L 82.6875 420.44141 L 420.44141 82.6875 z M 418.58984 254.41602 C 413.85379 254.46966 409.11236 254.72415 404.37891 255.18555 C 335.88181 261.86226 278.49893 307.39051 257.26953 371.90625 C 245.91253 406.4201 245.88711 442.87401 257.19141 477.56836 C 260.77421 488.56437 270.4973 508.52453 277 518.23242 C 297.1523 548.31818 326.54159 571.56854 360.27539 584.10938 C 363.72409 585.39135 367.57348 586.45868 368.83008 586.48047 C 371.69858 586.53027 375.62006 584.54467 376.72266 582.48438 C 377.22316 581.54923 377.56445 573.92282 377.56445 563.62695 L 377.56445 546.33984 L 375.31836 546.88086 C 374.08406 547.17892 368.30004 547.6283 362.46484 547.87695 C 350.20754 548.39929 343.93284 547.29821 335.83984 543.21289 C 328.08314 539.29733 323.72772 534.34506 318.38672 523.36133 C 313.36172 513.02727 308.60985 507.06237 300.87305 501.37891 C 298.39095 499.55554 295.91203 497.49171 295.36523 496.79297 C 290.62523 490.73597 302.98964 488.98228 312.96094 494.29688 C 318.96344 497.49618 324.38554 502.58048 328.27344 508.6582 C 334.37234 518.19221 340.59448 523.23516 349.36328 525.75586 C 358.84008 528.48006 378.35398 525.2508 378.39648 520.95117 C 378.42848 517.63701 382.2843 508.22465 385.2793 504.14453 C 388.7161 499.46268 389.36531 500.04011 378.78711 498.38867 C 365.05421 496.24474 351.40736 491.36996 342.06836 485.27344 C 322.46016 472.47303 312.78748 453.00558 310.95508 422.64844 C 309.80898 403.66209 314.65648 387.0248 325.14258 373.95508 L 328.31055 370.00781 L 326.82227 364.63672 C 324.78187 357.2783 324.82798 344.2495 326.92578 335.5 C 329.40728 325.15015 329.80828 324.54688 334.26758 324.54688 C 342.58488 324.54688 355.75679 329.34331 368.87109 337.14453 L 377.53906 342.29883 L 383.87695 340.83984 C 396.74555 337.87554 403.26016 337.23437 420.41016 337.23438 C 437.56016 337.23438 444.07281 337.87554 456.94141 340.83984 L 463.27734 342.29883 L 471.94531 337.14453 C 485.05961 329.34331 498.23153 324.54688 506.54883 324.54688 C 511.00813 324.54688 511.41313 325.15014 513.89453 335.5 C 515.99243 344.2495 516.03855 357.2783 513.99805 364.63672 L 512.50977 370.00781 L 515.67383 373.95508 C 528.72093 390.21688 532.81887 411.45657 528.10547 438.39453 C 525.12327 455.43893 517.00754 470.64528 505.83984 480.10938 C 495.80674 488.6119 479.86256 495.30788 463.25586 497.99023 C 458.54286 498.75149 454.21788 499.50867 453.64648 499.67383 C 452.95418 499.87393 453.67946 501.54648 455.81836 504.68555 C 457.58396 507.2766 459.87682 511.78357 460.91602 514.70117 C 462.73112 519.79719 462.82308 521.23328 463.23438 551.20117 C 463.65047 581.52906 463.71206 582.44413 465.38086 584.11133 C 469.53676 588.26342 476.74359 586.64205 496.30859 577.14844 C 523.87139 563.774 546.60601 543.93185 563.82031 518.23242 C 570.24131 508.64651 580.0177 488.6448 583.5918 477.7793 C 587.02 467.3577 590.16896 452.24079 591.34766 440.55273 C 596.31406 391.30509 578.02881 340.56984 542.50781 305.04883 C 509.67408 272.21509 464.38023 253.8989 418.5918 254.41602 L 418.58984 254.41602 z M 310.72852 496.08594 C 310.35372 496.10564 310.01401 496.23396 309.75781 496.49023 C 309.24581 497.00211 309.0734 497.82061 309.375 498.30859 C 310.1273 499.52588 314.13231 499.45755 313.72461 498.23438 C 313.29231 496.93755 311.85292 496.02683 310.72852 496.08594 z M 317.88672 501.98047 C 316.79242 501.91367 316.16768 503.0284 316.73828 504.82617 C 317.09468 505.94898 317.96738 506.53906 319.26758 506.53906 C 321.69108 506.53906 321.84176 504.87889 319.60156 502.85156 C 318.97706 502.28636 318.38412 502.0108 317.88672 501.98047 z M 324.76953 510.71289 C 324.34843 510.71312 323.93673 510.87383 323.58203 511.22852 C 322.83423 511.97618 322.82587 512.6975 323.54297 514.27148 C 324.11127 515.5187 325.1571 516.33398 326.1875 516.33398 C 327.5516 516.33398 327.83961 515.90258 327.63281 514.17188 C 327.39251 512.1599 326.03283 510.71222 324.76953 510.71289 z M 332.92383 520.41406 C 331.50933 520.41406 331.04688 520.87643 331.04688 522.29102 C 331.04688 523.3234 331.48679 524.6098 332.02539 525.14844 C 332.56399 525.68707 333.85041 526.12695 334.88281 526.12695 C 336.29741 526.12695 336.75977 525.6646 336.75977 524.25 C 336.75977 521.85827 335.31553 520.41406 332.92383 520.41406 z M 345.24414 527.75781 C 342.89004 527.75781 341.85907 529.71093 343.29688 531.44336 C 344.59507 533.00761 348.68851 533.01509 349.28711 531.45508 C 349.91941 529.80735 347.67844 527.75781 345.24414 527.75781 z M 373.50586 528.98242 C 370.31336 528.98242 368.1855 531.36861 370.2207 532.66602 C 372.0426 533.82744 374.01935 533.63498 375.50195 532.15234 C 377.40625 530.2481 376.61006 528.98242 373.50586 528.98242 z M 359.48438 530.20703 C 356.53717 530.20703 355.43445 532.42109 357.59375 534 C 359.50715 535.3991 360.53897 535.3913 362.48438 533.96875 C 363.80417 533.00369 363.87462 532.63466 362.94922 531.51953 C 362.35012 530.79767 360.79008 530.20703 359.48438 530.20703 z "
       transform="translate(1499.364,119.057)" />
  </g>
</svg>
