<svg xmlns="http://www.w3.org/2000/svg" version="1.1" xmlns:xlink="http://www.w3.org/1999/xlink" viewBox="0 0 800 800" opacity="0.64">
    <g stroke-width="3" stroke="hsl(0, 0%, 100%)" fill="none">
        <path
            d="M721.1496976222309 185.75255783352213C769.4010242876975 287.3032539036934 768.0025093459085 516.4086258945786 718.5150442815625 617.3627005959944C669.0275792172165 718.3167752974102 571.6341001394794 690.746364355369 483.6098653133704 670.3321164003172C395.5856304872616 649.9178684452654 386.59486169304455 626.3907014818369 295.9987171162394 519.3743104117448C205.40257253943435 412.3579193416525 8.975463184063301 237.7898873789934 48.74837134470624 156.65343926387442C88.52127950534918 75.51699114875538 346.82506664617335 123.85704309049561 486.9086762873244 129.91935945917243C626.9922859284754 135.9816758278493 672.8983709567643 84.20186176335079 721.1496976222309 185.75255783352213C769.4010242876975 287.3032539036934 768.0025093459085 516.4086258945786 718.5150442815625 617.3627005959944 "></path>
        <path
            d="M710.7899984549814 192.6638001006741C757.4848307118846 290.9386672653561 756.1314291553147 512.6535433855674 708.240333931754 610.3510350320989C660.3492387081933 708.0485266786304 566.0974847619963 681.3674838314937 480.9127413818908 661.6117600040242C395.7279980017854 641.8560361765547 387.02725400738177 619.0878100829143 299.35356570724775 515.5235606602444C211.67987740711385 411.9593112375744 21.58912641804517 243.0225061124205 60.079037541248 164.5033627752086C98.56894866445083 85.98421943799667 348.5403555749258 132.76491486548719 484.1051390986204 138.63167264162604C619.669922622315 144.49843041776495 664.0951661980783 94.38893293599216 710.7899984549814 192.6638001006741C757.4848307118846 290.9386672653561 756.1314291553147 512.6535433855674 708.240333931754 610.3510350320989 "></path>
        <path
            d="M700.4303603228883 199.5749813326699C745.5686981712279 294.57401959186245 744.2604099998772 508.8983998414001 697.9656846171018 603.3393084330471C651.6709592343266 697.7802170246944 560.5609304196693 671.9885422724622 478.2156784855674 652.891342572575C395.87042655146547 633.7941428726878 387.45970735687524 611.7848576488353 302.7084753334125 511.6727498735878C217.95724330994972 411.56064209834017 34.20285068718323 248.2550638106914 71.40976477294595 172.3532252513865C108.61667885870872 96.45138669208166 350.2557055388345 141.6727256053225 481.3016629450726 147.3439247889234C612.3476203513108 153.01512397252435 655.2920224745486 104.57594307347733 700.4303603228883 199.5749813326699C745.5686981712279 294.57401959186245 744.2604099998772 508.8983998414001 697.9656846171018 603.3393084330471 "></path>
        <path
            d="M690.070661155639 206.48622359982187C733.6525045954152 298.20943295352504 732.3893298092834 505.14331733238896 687.6909742672933 596.3276428691516C642.9926187253034 687.5119684059144 555.0243150421861 662.6096617485867 475.5185545540876 644.170986176282C396.0127940659893 625.7323106039771 387.8920996712126 604.4819662499126 306.06332392442096 507.8220001220874C224.23454817762922 411.1620339942622 46.81651392116504 253.4876825441185 82.7404309694877 180.20314876272073C118.66434801781037 106.91861498132295 351.97099446758693 150.5805973803141 478.4981257563686 156.05623797137702C605.0252570451503 161.53187856244 646.4888177158626 114.76301424611876 690.070661155639 206.48622359982187C733.6525045954152 298.20943295352504 732.3893298092834 505.14331733238896 687.6909742672933 596.3276428691516 "></path>
        <path
            d="M679.7110230235457 213.39740483181765C721.7363720547586 301.8447852800314 720.5183106538458 501.3881737882216 677.4163249526412 589.3159162700999C634.3143392514365 677.2436587519783 549.4877606998591 653.2307201895552 472.8214916577642 635.4505687448327C396.15522261566935 617.6704173001101 388.32455302070605 597.1790138158337 309.41823355058557 503.97118933543084C230.51191408046498 410.76336485502793 59.43023819030316 258.7202402423894 94.07115820118571 188.05301123889865C128.71207821206826 117.38578223540793 353.6863444314956 159.48840812014942 475.69464960282085 164.76849011867438C597.7029547741461 170.04857211719934 637.685673992333 124.95002438360387 679.7110230235457 213.39740483181765C721.7363720547586 301.8447852800314 720.5183106538458 501.3881737882216 677.4163249526412 589.3159162700999 "></path>
        <path
            d="M669.3513543738745 220.3086165813915C709.8202089965239 305.48016812411583 708.6472609808301 497.63306076163235 667.1416451204108 582.3042201886263C625.6360292599916 666.9753796156203 543.951175839954 643.8518091481019 470.12439824386263 626.7301818309616C396.2976206477713 609.6085545138212 388.7569758526215 589.876091899333 312.77311265917206 500.1204090663524C236.78924946572266 410.3647262333718 72.0439319418631 263.9528284582384 105.40185491530553 195.90290423265475C138.75977788874798 127.85298000707104 355.4016638778263 168.39624937756287 472.89114293169496 173.48077278354987C590.3806219855636 178.56529618953687 628.8824997512252 135.13706503866717 669.3513543738745 220.3086165813915C709.8202089965239 305.48016812411583 708.6472609808301 497.63306076163235 667.1416451204108 582.3042201886263 "></path>
        <path
            d="M658.9917162417813 227.21981307217635C697.9040764558673 309.1155357094113 696.7762418253925 493.87793247625405 656.8669958057586 575.2925088483637C616.9577497861246 656.7070852204732 538.414621497627 634.4728828478593 467.42733534753916 618.0097796583013C396.44004919745134 601.5466764687435 389.189429202115 582.5731547240431 316.1280222853368 496.2696135384848C243.06661536855847 409.96607235292663 84.65765621100115 269.1854014152983 116.73258214700354 203.75278196762173C148.80750808300587 138.32016251994514 357.117013841735 177.30407537618726 470.0876667781472 182.1930401896363C583.0583197145594 187.08200500308533 620.0793560276954 145.3240904349414 658.9917162417813 227.21981307217635C697.9040764558673 309.1155357094113 696.7762418253925 493.87793247625405 656.8669958057586 575.2925088483637 "></path>
        <path
            d="M648.631986556954 234.1310248217502C685.9878523624764 312.7509185534958 684.9051311172205 490.1228194496648 646.5922549383721 568.28081276689C608.2793787595235 646.4388060841152 532.8779756025657 625.0939718064058 464.7301808984814 609.2893927444302C396.58238619439703 593.4848136824546 389.6217909988741 575.2702328075422 319.482840358767 492.4188332694064C249.34388971865985 409.5674337312705 97.2712889274049 274.41798963114735 128.06321782596712 211.60267496137783C158.8551467245294 148.78736029160825 358.83227225290943 186.2119166336007 467.28409907186506 190.90532285451178C575.7359258908208 195.59872907542285 611.2761207514314 155.51113109000465 648.631986556954 234.1310248217502C685.9878523624764 312.7509185534958 684.9051311172205 490.1228194496648 646.5922549383721 568.28081276689 "></path>
        <path
            d="M638.2723484248609 241.04225183011317C674.0717198218198 316.38631665636933 673.034111961783 486.3677216818646 636.3176056237198 561.2691319442056C599.6010992856566 636.1705422065463 527.3414212602388 615.7150760237415 462.03311800215795 600.5690210893482C396.7248147440771 585.422966154955 390.05424434836766 567.9673261498306 322.83774998493163 488.568068259117C255.62125562149566 409.16881036840346 109.88501319654296 279.6505931057854 139.39394505766512 219.45258321392294C168.90287691878729 159.25457332206048 360.5476222168181 195.11977314980322 464.4806229183173 199.61762077817633C568.4136236198165 204.11546840654944 602.4729770279017 165.69818700385702 638.2723484248609 241.04225183011317C674.0717198218198 316.38631665636933 673.034111961783 486.3677216818646 636.3176056237198 561.2691319442056 "></path>
        <path
            d="M627.9126797751895 247.95343306210896C662.1555567635851 320.02166898287567 661.1630622887673 482.61257813769726 626.0429257914894 554.2574053451538C590.9227892942115 625.9022325526103 521.8048364003337 606.3361344647099 459.33602458825635 591.848603657899C396.86721277617903 577.361072851088 390.4866671802831 560.6643737157517 326.19262909351824 484.71725747246046C261.8985910067533 408.7701412291692 122.49870694810289 284.8831508040563 150.724641771785 227.30244569010085C178.95057659546706 169.72174057614546 362.2629416631487 204.02758388963855 461.6771162471914 208.3298729254737C561.0912908312341 212.63216196130884 593.669802786794 175.8851971413422 627.9126797751895 247.95343306210896C662.1555567635851 320.02166898287567 661.1630622887673 482.61257813769726 626.0429257914894 554.2574053451538 "></path>
        <path
            d="M617.5530416430963 254.8646448116828C650.2394242229286 323.6570518269602 649.2920431333298 478.8574651111081 615.7682764768372 547.2457092636802C582.2445098203448 615.6339534162522 516.2682820580067 596.9572234232566 456.638961691933 583.1282167440279C397.0096413258592 569.2992100647991 390.9191205297766 553.3614517992509 329.54753871968285 480.8664772033819C268.1759569095891 408.3715026075131 135.112431217241 290.1157390199053 162.05536900348295 235.15233868385695C188.99830678972495 180.18893834780857 363.9782916270574 212.935425147052 458.87364009364364 217.04215559034918C553.7689885602299 221.14888603364636 584.8666590632643 186.07223779640543 617.5530416430963 254.8646448116828C650.2394242229286 323.6570518269602 649.2920431333298 478.8574651111081 615.7682764768372 547.2457092636802 "></path>
        <path
            d="M607.1933729934251 261.7758565612567C638.3232611646938 327.2924346710447 637.420993460314 475.1023520845189 605.4935966446069 540.2340131822066C573.5661998288997 605.3656742798942 510.73169719810164 587.578312381803 453.9418682780314 574.4078298301567C397.15203935796103 561.2373472785105 391.35154336169194 546.05852988275 332.90241782826934 477.0156969343035C274.45329229484673 407.972863985857 147.72612496880095 295.3483272357543 173.38606571760283 243.002231677613C199.04600646640472 190.65613611947174 365.69361107338796 221.8432664044654 456.07013342251776 225.75443825522467C546.4466557716476 229.6656101059839 576.0634848221564 196.25927845146873 607.1933729934251 261.7758565612567C638.3232611646938 327.2924346710447 637.420993460314 475.1023520845189 605.4935966446069 540.2340131822066 "></path>
        <path
            d="M596.8336738261758 268.68706831083057C626.4070675888811 330.92781751512916 625.5499132697202 471.34723905792964 595.2188862947985 533.2223171007329C564.8878593198767 595.0973951435362 505.1950818206185 578.1994013403496 451.24474434655167 565.6874429162856C397.29440687248484 553.1754844922216 391.7839356760293 538.7556079662493 336.2572664192778 473.16491666522506C280.7305971625263 407.57422536420086 160.33978820278276 300.5809154516033 184.71673191414453 250.8521246713691C209.09367562550636 201.12333389113485 367.4089000021405 230.75110766187885 453.26659623381374 234.46672092010016C539.124292465487 238.1823341783214 567.2602800634704 206.44631910653203 596.8336738261758 268.68706831083057C626.4070675888811 330.92781751512916 625.5499132697202 471.34723905792964 595.2188862947985 533.2223171007329 "></path>
        <path
            d="M586.4740204352936 275.5982800604045C614.4909197894353 334.5632003592136 613.6788788554935 467.5921260313404 584.944221721357 526.2106210192594C556.2095645872207 584.8291160071783 499.6585122195024 568.8204902988962 448.54766619143913 556.9670560024144C397.43682016337596 545.1136217059328 392.2163737667338 531.4526860497485 339.61216078665336 469.3141363961465C287.00794780657304 407.17558674254474 172.95349721313175 305.8135036674523 196.04744388705348 258.70201766512514C219.1413905609752 211.590531662798 369.12423470726014 239.6589489192923 450.4631048214769 243.17900358497565C531.8019749356937 246.69905825065894 558.4571210811516 216.63335976159533 586.4740204352936 275.5982800604045C614.4909197894353 334.5632003592136 613.6788788554935 467.5921260313404 584.944221721357 526.2106210192594 "></path>
        <path
            d="M576.1143670444113 282.5094612924002C602.5747719899898 338.19855268572 601.807844441267 463.83698248717315 574.6695571479158 519.1988944202076C547.5312698545647 574.5608063532421 494.12194261838636 559.4415487398646 445.8505880363266 548.2466385709653C397.57923345426696 537.0517284020659 392.6488118574382 524.1497336156697 342.96705515402897 465.4633256094901C293.28529845061973 406.7769176033105 185.5672062234808 311.0460613657232 207.37815585996242 266.5518801413031C229.18910549644403 222.057698916883 370.8395694123798 248.56675965912763 447.6596134091401 251.891255732273C524.4796574059003 255.21575180541834 549.653962098833 226.82036989908045 576.1143670444113 282.5094612924002C602.5747719899898 338.19855268572 601.807844441267 463.83698248717315 574.6695571479158 519.1988944202076 "></path>
        <path
            d="M565.7546983947401 289.4206730419741C590.6586089317551 341.8339355298045 589.9367947682513 460.0818694605839 564.3948773156856 512.187198338734C538.8529598631198 564.2925272168841 488.58535775848134 550.0626376984112 443.1534946224251 539.5262516570941C397.7216314863689 528.989865615777 393.08123468935355 516.8468116991688 346.3219342626155 461.61254534041154C299.5626338358774 406.37827898165426 198.18089997504075 316.2786495815722 218.70885257408224 274.40177313505916C239.2368051731238 232.5248966885461 372.55488885871046 257.4746009165411 444.8561067380142 260.6035383971485C517.157324617318 263.73247587775586 540.8507878577252 237.00741055414375 565.7546983947401 289.4206730419741C590.6586089317551 341.8339355298045 589.9367947682513 460.0818694605839 564.3948773156856 512.187198338734 "></path>
        <path
            d="M555.3950144862797 296.331884791548C578.7424306147313 345.469318373889 578.0657298364464 456.32675643399466 554.120182224666 505.1755022572604C530.1746346128857 554.0242480805261 483.04875763978725 540.6837266569578 440.45638594973445 530.8058647432231C397.86401425968177 520.9280028294883 393.51364226247995 509.5438897826681 349.67679811241294 457.7617650713331C305.839953962346 405.97964035999814 210.79457846781162 321.5112377974212 230.03953402941306 282.25166612881526C249.28448959101445 242.99209446020927 374.27019304625196 266.38244217395453 442.05258480809925 269.315821062024C509.83497656994655 272.2491999500934 532.0475983578283 247.19445120920705 555.3950144862797 296.331884791548C578.7424306147313 345.469318373889 578.0657298364464 456.32675643399466 554.120182224666 505.1755022572604 "></path>
        <path
            d="M545.0353305778194 303.24311179991093C566.8262522977076 349.1047164767625 566.1946649046417 452.5716586661945 543.8454871336467 498.16382143457577C521.4963093626517 543.7559842029573 477.51215752109306 531.3048308742934 437.7592772770438 522.085493088141C398.00639703299464 512.8661553019886 393.9460498356063 502.2409831249563 353.0316619622105 453.91100006104375C312.1172740888146 405.5810169971311 223.40825696058255 326.7438412720593 241.37021548474388 290.10157438136036C259.33217400890516 253.45930749066144 375.98549723379347 275.29029869015704 439.2490628781843 278.02811898568854C502.51262852257514 280.76593928121997 523.2444088579314 257.38150712305935 545.0353305778194 303.24311179991093C566.8262522977076 349.1047164767625 566.1946649046417 452.5716586661945 543.8454871336467 498.16382143457577 "></path>
        <path
            d="M534.6756619281482 310.1542930319067C554.9100892394729 352.74006880326885 554.323615231626 448.8165151220271 533.5708073014164 491.15209483552417C512.8179993712067 533.4876745490211 471.9755726611879 521.9258893152619 435.0621838631423 513.3650756566917C398.1487950650966 504.80426199812155 394.3784726675217 494.93803069087744 356.38654107079697 450.0601892743871C318.39460947407224 405.18234785789684 236.02195071214248 331.97639897033014 252.7009121988637 297.9514368575383C269.3798736855849 263.9264747447465 377.7008166801241 284.19810942999237 436.4455562070584 286.7403711329859C495.1902957339928 289.28263283597937 514.4412346168235 267.5685172605445 534.6756619281482 310.1542930319067C554.9100892394729 352.74006880326885 554.323615231626 448.8165151220271 533.5708073014164 491.15209483552417 "></path>
        <path
            d="M524.315993278477 317.06550478148057C542.9939261812382 356.3754516473534 542.4525655586103 445.06140209543787 523.2961274691861 484.14039875405047C504.13968937976176 523.2193954126631 466.4389878012828 512.5469782738083 432.3650904492407 504.64468874282056C398.2911930971985 496.7423992118328 394.81089549943704 487.6351087743766 359.7414201793835 446.20940900530866C324.6719448593299 404.7837092362407 248.63564446370242 337.2089871861791 264.0316089129836 305.8013298512944C279.4275733622647 274.3936725164096 379.4161361264547 293.1059506874058 433.64204953593253 295.4526537978614C487.86796294541045 297.7993569083169 505.63806037571567 277.7555579156078 524.315993278477 317.06550478148057C542.9939261812382 356.3754516473534 542.4525655586103 445.06140209543787 523.2961274691861 484.14039875405047 "></path>
        <path
            d="M513.9563246288058 323.9767165310545C531.0777631230035 360.01083449143783 530.5815158855946 441.3062890688486 513.0214476369556 477.1287026725769C495.4613793883167 512.9511162763051 460.9024029413778 503.16806723235493 429.6679970353391 495.9243018289495C398.43359112930045 488.680536425544 395.2433183313525 480.33218685787585 363.09629928797006 442.35862873623023C330.9492802445876 404.3850706145846 261.2493382152624 342.44157540202815 275.3623056271034 313.6512228450504C289.47527303894447 284.86087028807276 381.1314555727853 302.0137919448193 430.83854286480664 304.1649364627368C480.545630156828 306.3160809806544 496.8348861346079 287.94259857067107 513.9563246288058 323.9767165310545C531.0777631230035 360.01083449143783 530.5815158855946 441.3062890688486 513.0214476369556 477.1287026725769 "></path>
        <path
            d="M503.5966712379235 330.88792828062833C519.1616153235578 363.64621733552235 518.710481471368 437.55117604225944 502.7467830635144 470.1170065911033C486.7830846556608 502.6828371399471 455.3658333402618 493.7891561909015 426.97091888022663 487.20391491507837C398.57600442019145 480.61867363925523 395.6757564220569 473.029264941375 366.4511936553456 438.50784846715175C337.2266308886343 403.9864319929285 273.8630472256114 347.6741636178772 286.69301760001235 321.5011158388065C299.5229879744133 295.32806805973587 382.8467902779049 310.9216332022327 428.0350514524698 312.8772191276123C473.2233126270347 314.83280505299194 488.03172715228914 298.12963922573437 503.5966712379235 330.88792828062833C519.1616153235578 363.64621733552235 518.710481471368 437.55117604225944 502.7467830635144 470.1170065911033 "></path>
        <path
            d="M493.23700258825227 337.79914003020224C507.24545226532314 367.2816001796068 506.8394317983523 433.7960630156702 492.472103231284 463.1053105096297C478.1047746642158 492.41455800358915 449.8292484803567 484.4102451494481 424.27382546632504 478.4835280012072C398.71840245229345 472.55681085296646 396.10817925397237 465.72634302487427 369.80607276393215 434.65706819807326C343.503966273892 403.58779337127237 286.47674097717135 352.90675183372616 298.02371431413223 329.35100883256257C309.57068765109307 305.795265831399 384.56210972423554 319.8294744596462 425.2315447813439 321.5895017924878C465.90097983845226 323.34952912532947 479.2285529111813 308.31667988079766 493.23700258825227 337.79914003020224C507.24545226532314 367.2816001796068 506.8394317983523 433.7960630156702 492.472103231284 463.1053105096297 "></path>
        <path
            d="M482.87733393858093 344.710321262198C495.32928920708855 370.9169525061132 494.9683821253366 430.0409194715029 482.1974233990537 456.09358391057793C469.42646467277086 482.146248349653 444.2926636204516 475.03130359041654 421.5767320524235 469.76311056975806C398.8608004843954 464.49491754909945 396.5406020858877 458.42339059079535 373.1609518725187 430.8062574114167C349.7813016591496 403.18912423203807 299.09043472873134 358.139309531997 309.35441102825206 337.20087130874055C319.61838732777284 316.262433085484 386.27742917056617 328.7372851994815 422.42803811021804 330.30175393978516C458.5786470498699 331.86622268008887 470.42537867007354 318.5036900182828 482.87733393858093 344.710321262198C495.32928920708855 370.9169525061132 494.9683821253366 430.0409194715029 482.1974233990537 456.09358391057793 "></path>
        <path
            d="M472.5176805476988 351.62154827056094C483.41314140764285 374.5523506089867 483.09734771110993 426.2858217037027 471.9227588256124 449.08190308789335C460.7481699401149 471.8779844720841 438.7560940193356 465.6524078077522 418.87965389731096 461.04273891467597C399.0032137752864 456.43307002159975 396.97304017659224 451.1204839330836 376.5158462398943 426.95549240112734C356.05865230319637 402.790500869171 311.70414373908034 363.3719130066351 320.685123001161 345.05077956128565C329.66610226324167 326.7296461159362 387.9927638756858 337.645141715684 419.6245466978812 339.0140518634497C451.25632952007663 340.38296201121545 461.62221968775475 328.69074593213514 472.5176805476988 351.62154827056094C483.41314140764285 374.5523506089867 483.09734771110993 426.2858217037027 471.9227588256124 449.08190308789335 "></path>
        <path
            d="M462.15801189802755 358.53276002013484C471.49697834940815 378.1877334530712 471.2262980380942 422.53070867711347 461.6480789933821 442.07020700641976C452.06985994866994 461.60970533572606 433.21950915943046 456.2734967662987 416.1825604834094 452.3223520008048C399.1456118073883 448.3712072353109 397.4054630085076 443.8175620165828 379.87072534848085 423.10471213204886C362.33598768845405 402.3918622475149 324.3178374906403 368.6045012224841 332.0158197152808 352.9006725550417C339.71380193992144 337.19684388759936 389.7080833220164 346.5529829730974 416.8210400267553 347.7263345283252C443.9339967314943 348.899686083553 452.8190454466469 338.87778658719844 462.15801189802755 358.53276002013484C471.49697834940815 378.1877334530712 471.2262980380942 422.53070867711347 461.6480789933821 442.07020700641976 "></path>
        <path
            d="M451.7983432483563 365.4439717697087C459.58081529117345 381.8231162971557 459.3552483650785 418.7755956505242 451.3733991611517 435.0585109249462C443.3915499572249 451.3414261993681 427.68292429952544 446.8945857248453 413.4854670695079 443.6019650869337C399.28800983949026 440.30934444902215 397.837885840423 436.51464010008203 383.22560445706733 419.2539318629704C368.6133230737117 401.9932236258588 336.9315312422002 373.8370894383331 343.3465164294007 360.7505655487978C349.76150161660115 347.66404165926247 391.423402768347 355.46082423051087 414.01753335562944 356.4386171932007C436.6116639429119 357.4164101558905 444.0158712055391 349.06482724226174 451.7983432483563 365.4439717697087C459.58081529117345 381.8231162971557 459.3552483650785 418.7755956505242 451.3733991611517 435.0585109249462 "></path>
        <path
            d="M441.438674598685 372.35516826049354C447.6646522329388 385.4584838824511 447.4841986920628 415.020467365146 441.0987193289214 428.0467995846835C434.71323996577996 441.073131804221 422.1463394396203 437.5156594246028 410.7883736556063 434.88156291427356C399.43040787159225 432.24746640394426 398.2703086723384 429.21170292479223 386.5804835656539 415.4031363351029C374.89065845896937 401.5945697454136 349.5452249937602 379.06966239539304 354.6772131435206 368.6004432837648C359.8092012932809 358.1312241721365 393.1387222146776 364.36865022913526 411.21402668450355 365.1508845992871C429.2893311543295 365.93311896943896 435.2126969644313 359.2518526385359 441.438674598685 372.35516826049354C447.6646522329388 385.4584838824511 447.4841986920628 415.020467365146 441.0987193289214 428.0467995846835 "></path>
        <path
            d="M431.0790059490138 379.26636475127833C435.7484891747041 389.09385146774656 435.6131490190471 411.26533907976767 430.82403949669106 421.0350882444208C426.03492997433494 430.80483740907397 416.60975457971523 428.1367331243603 408.0912802417047 426.16116074161334C399.5728059036942 424.1855883588664 398.7027315042538 421.9087657495024 389.9353626742404 411.5523408072354C381.167993844227 401.19591586496836 362.15891874532014 384.302235352453 366.0079098576404 376.4503210187318C369.8569009699607 368.5984066850106 394.8540416610082 373.27647622775964 408.41052001337766 373.86315200537354C421.96699836574714 374.4498277829874 426.40952272332345 369.43887803481016 431.0790059490138 379.26636475127833C435.7484891747041 389.09385146774656 435.6131490190471 411.26533907976767 430.82403949669106 421.0350882444208 "></path>
        <path
            d="M420.7193372993425 386.1775917596413C423.8323261164694 392.7292495706201 423.7420993460314 407.5102413119675 420.54935966446067 414.0234074217363C417.35661998289 420.53657353150504 411.07316971981015 418.75783734169596 405.39418682780314 417.4407890865313C399.7152039357961 416.12374083136666 399.1351543361692 414.60585909179065 393.2902417828269 407.701575796946C387.4453292294847 400.7972925021013 374.7726124968801 389.53483882709105 377.3386065717603 384.3002292712769C379.90460064664046 379.0656197154628 396.5693611073388 382.18433274396216 405.6070133422518 382.5754499290381C414.64466557716474 382.966567114114 417.60634848221565 379.6259339486625 420.7193372993425 386.1775917596413C423.8323261164694 392.7292495706201 423.7420993460314 407.5102413119675 420.54935966446067 414.0234074217363 "></path>
        <path
            d="M410.3596686496713 393.0887882504261C411.9161630582347 396.36461715591554 411.8710496730157 403.75511302658924 410.27467983223033 407.0116960814736C408.67830999144496 410.268279136358 405.5365848599051 409.3789110414534 402.69709341390154 408.7203869138711C399.85760196789806 408.0618627862888 399.5675771680846 407.3029219165008 396.64512089141346 403.8507802690785C393.7226646147423 400.3986386216561 387.38630624844006 394.767411784151 388.6693032858801 392.15010700624396C389.95230032332023 389.5328022283369 398.2846805536694 391.09215874258655 402.8035066711259 391.2877173351245C407.3223327885824 391.4832759276625 408.8031742411078 389.8129593449367 410.3596686496713 393.0887882504261C411.9161630582347 396.36461715591554 411.8710496730157 403.75511302658924 410.27467983223033 407.0116960814736 "></path>
    </g>
</svg>